<?xml version="1.0" encoding="iso-8859-1"?>
<!-- Generator: Adobe Illustrator 19.0.0, SVG Export Plug-In . SVG Version: 6.00 Build 0)  -->
<svg version="1.1" id="Layer_1" xmlns="http://www.w3.org/2000/svg" xmlns:xlink="http://www.w3.org/1999/xlink" x="0px" y="0px"
	 viewBox="0 0 507.8 507.8" style="enable-background:new 0 0 507.8 507.8;" xml:space="preserve">
<path style="fill:#FFD15C;" d="M451.4,95.5h-395c0,31.2-25.3,56.4-56.4,56.4v204c31.2,0,56.4,25.3,56.4,56.4h395
	c0-31.2,25.3-56.4,56.4-56.4v-204C476.7,151.9,451.4,126.7,451.4,95.5z"/>
<g>
	<path style="fill:#FFFFFF;" d="M113.5,372.8h-26l-1.6-3.1c-3.2-6.3-7.1-12.4-11.6-17.9l8.7-7.1c4.3,5.3,8.1,10.9,11.3,16.9h19.1
		v11.2H113.5z"/>
	<path style="fill:#FFFFFF;" d="M71.8,348.8c-0.9-1-1.7-1.9-2.7-2.9l8.1-7.8c1,1.1,2,2.1,3,3.2L71.8,348.8z M66.3,343.1
		c-0.9-0.9-1.9-1.8-2.9-2.7l7.5-8.4c1.1,1,2.2,2,3.2,3L66.3,343.1z"/>
	<path style="fill:#FFFFFF;" d="M60.5,337.9c-5.5-4.5-11.6-8.4-17.9-11.6l-3.1-1.6v-26.1h11.3v19.3c6,3.2,11.6,7,16.9,11.3
		L60.5,337.9z"/>
	<path style="fill:#FFFFFF;" d="M50.8,280.8H39.5v-17.9h11.3C50.8,262.9,50.8,280.8,50.8,280.8z M50.8,244.9H39.5V227h11.3
		C50.8,227,50.8,244.9,50.8,244.9z"/>
	<path style="fill:#FFFFFF;" d="M50.8,209H39.5v-26.1l3.1-1.6c6.4-3.2,12.4-7.1,17.9-11.6l7.1,8.8c-5.3,4.3-10.9,8.1-16.9,11.3V209
		H50.8z"/>
	<path style="fill:#FFFFFF;" d="M71,175.8l-7.5-8.4c1-0.9,1.9-1.8,2.9-2.7l7.8,8.1C73.1,173.8,72.1,174.8,71,175.8z M77.3,169.7
		l-8.2-7.8c0.9-0.9,1.8-1.9,2.7-2.9l8.5,7.5C79.3,167.5,78.3,168.6,77.3,169.7z"/>
	<path style="fill:#FFFFFF;" d="M83.1,163.2l-8.7-7.1c4.5-5.5,8.4-11.6,11.6-17.9l1.6-3.1h26.1v11.3H94.4
		C91.2,152.2,87.4,157.9,83.1,163.2z"/>
	<path style="fill:#FFFFFF;" d="M215.6,146.3h-25.5V135h25.5V146.3z M164.6,146.3h-25.5V135h25.5V146.3z"/>
	<path style="fill:#FFFFFF;" d="M368.8,146.3h-25.5V135h25.5V146.3z M317.7,146.3h-25.5V135h25.5V146.3z M266.7,146.3h-25.5V135
		h25.5V146.3z"/>
	<path style="fill:#FFFFFF;" d="M424.7,163.2c-4.3-5.3-8.1-10.9-11.3-16.9h-19.1V135h26.1l1.6,3.1c3.2,6.3,7,12.4,11.6,17.9
		L424.7,163.2z"/>
	<path style="fill:#FFFFFF;" d="M436.9,175.8c-1.1-1-2.2-2-3.2-3l7.8-8.1c0.9,0.9,1.9,1.8,2.9,2.7L436.9,175.8z M430.5,169.7
		c-1-1.1-2-2.1-3-3.2l8.4-7.5c0.9,1,1.8,1.9,2.7,2.9L430.5,169.7z"/>
	<path style="fill:#FFFFFF;" d="M468.3,209H457v-19.1c-5.9-3.2-11.6-7-16.9-11.3l7.1-8.8c5.5,4.5,11.6,8.4,17.9,11.6l3.1,1.6v26
		H468.3z"/>
	<path style="fill:#FFFFFF;" d="M468.3,280.8H457v-17.9h11.3V280.8z M468.3,244.9H457V227h11.3V244.9z"/>
	<path style="fill:#FFFFFF;" d="M447.3,337.9l-7.1-8.8c5.3-4.3,10.9-8.1,16.9-11.3v-19.1h11.3v26.1l-3.1,1.6
		C458.9,329.5,452.8,333.4,447.3,337.9z"/>
	<path style="fill:#FFFFFF;" d="M436,348.8l-8.5-7.5c1-1.1,2-2.2,3-3.2l8.2,7.8C437.7,346.9,436.8,347.8,436,348.8z M441.4,343.1
		l-7.8-8.1c1.1-1,2.1-2,3.2-3l7.5,8.4C443.3,341.3,442.4,342.2,441.4,343.1z"/>
	<path style="fill:#FFFFFF;" d="M420.3,372.8h-26.1v-11.3h19.1c3.2-5.9,7-11.6,11.3-16.9l8.8,7.1c-4.5,5.5-8.4,11.6-11.6,17.9
		L420.3,372.8z"/>
	<path style="fill:#FFFFFF;" d="M368.8,372.8h-25.5v-11.3h25.5V372.8z M317.7,372.8h-25.5v-11.3h25.5V372.8z"/>
	<path style="fill:#FFFFFF;" d="M266.7,372.8h-25.5v-11.3h25.5V372.8z M215.6,372.8h-25.5v-11.3h25.5V372.8z M164.6,372.8h-25.5
		v-11.3h25.5V372.8z"/>
</g>
<g>
	<path style="fill:#40596B;" d="M170.5,223.3c5.6-5.1,9.5-9.1,11.6-11.8c3.2-4.1,5.6-8.1,7.1-11.8c1.5-3.8,2.2-7.7,2.2-11.9
		c0-7.3-2.6-13.4-7.8-18.3c-5.2-4.9-12.4-7.4-21.5-7.4c-8.3,0-15.3,2.1-20.8,6.4c-5.5,4.2-8.8,11.2-9.9,21l17.6,1.8
		c0.3-5.2,1.6-8.9,3.8-11.1c2.2-2.2,5.1-3.3,8.8-3.3c3.7,0,6.7,1.1,8.8,3.2c2.1,2.1,3.2,5.2,3.2,9.1c0,3.6-1.2,7.2-3.7,10.8
		c-1.8,2.6-6.7,7.7-14.7,15.1c-9.9,9.2-16.6,16.6-19.9,22.2c-3.4,5.6-5.4,11.5-6.1,17.7h62.1v-16.5h-35.2c0.9-1.6,2.1-3.2,3.6-4.9
		C161.4,231.9,164.9,228.5,170.5,223.3z"/>
	<path style="fill:#40596B;" d="M237.6,193.1c-4.1,0-8.2,1-12.1,3l2.8-15.7h33.4v-16.6h-46.8l-9.1,48.1l14.4,2.1
		c4-4.5,8.6-6.7,13.7-6.7c4.1,0,7.4,1.4,9.9,4.3c2.5,2.8,3.8,7.1,3.8,12.8c0,6.1-1.3,10.6-3.8,13.6c-2.6,3-5.7,4.5-9.4,4.5
		c-3.2,0-6.1-1.2-8.6-3.5c-2.5-2.3-4-5.5-4.5-9.5l-17.6,1.8c1,7.7,4.3,13.9,9.6,18.5c5.4,4.6,12.3,6.9,20.9,6.9
		c10.7,0,19-4.1,25-12.2c4.4-6,6.6-12.8,6.6-20.4c0-9.1-2.7-16.5-8.2-22.2C252.2,195.9,245.5,193.1,237.6,193.1z"/>
	<path style="fill:#40596B;" d="M373,215.8c-3.6-4-8.6-6-15-6c-6.3,0-11.3,2-14.9,6s-5.5,10.1-5.5,18.4c0,8.3,1.8,14.5,5.5,18.5
		c3.6,4,8.7,6,15.1,6c6.2,0,11.1-2,14.8-6c3.6-4,5.5-10.2,5.5-18.5C378.5,225.9,376.6,219.8,373,215.8z M362.3,246.2
		c-1,1.5-2.5,2.3-4.3,2.3s-3.3-0.8-4.4-2.3c-1.4-2-2.1-6-2.1-12s0.7-10,2.1-12.1c1-1.5,2.5-2.3,4.4-2.3s3.4,0.8,4.4,2.3
		c1.3,2.1,2,6.1,2,12.1S363.6,244.2,362.3,246.2z"/>
	<path style="fill:#40596B;" d="M316.1,185.3c0-8.3-1.8-14.5-5.4-18.4c-3.6-4-8.7-6-15.1-6c-6.2,0-11.1,2-14.8,6
		c-3.6,4-5.5,10.1-5.5,18.4c0,8.3,1.8,14.5,5.5,18.4c3.6,4,8.7,6,15.1,6c6.2,0,11.1-2,14.8-6C314.3,199.8,316.1,193.6,316.1,185.3z
		 M300,197.3c-1.1,1.5-2.5,2.3-4.4,2.3c-1.8,0-3.3-0.8-4.4-2.3c-1.4-2.1-2.1-6.1-2.1-12.1s0.7-10,2.1-12.1c1-1.5,2.5-2.3,4.4-2.3
		s3.4,0.8,4.4,2.3c1.3,2,2,6,2,12S301.3,195.3,300,197.3z"/>
	<polygon style="fill:#40596B;" points="345.2,160.9 295.9,258.5 309.1,258.5 357.9,160.9 	"/>
</g>
<g>
	<path style="fill:#F1543F;" d="M197,277.6c-5.4,0-10.3,0.9-14.4,2.6c-3.1,1.3-6,3.3-8.7,6c-2.6,2.7-4.7,5.8-6.2,9.2
		c-2,4.6-3.1,10.4-3.1,17.2c0,10.7,2.9,19,8.8,25.1c5.9,6.1,13.8,9.1,23.8,9.1c9.8,0,17.7-3.1,23.6-9.2s8.8-14.6,8.8-25.4
		c0-10.9-3-19.4-8.9-25.5C214.7,280.7,206.8,277.6,197,277.6z M210.4,329.5c-3.5,3.9-7.9,5.8-13.3,5.8s-9.8-2-13.3-5.9
		s-5.3-9.7-5.3-17.2c0-7.7,1.7-13.5,5.1-17.3c3.4-3.8,7.9-5.7,13.5-5.7s10,1.9,13.4,5.7c3.4,3.8,5,9.5,5,17.2
		C215.5,319.8,213.8,325.6,210.4,329.5z"/>
	<polygon style="fill:#F1543F;" points="240.2,345.7 253.7,345.7 253.7,317.3 281.6,317.3 281.6,305.9 253.7,305.9 253.7,290.1 
		286.1,290.1 286.1,278.7 240.2,278.7 	"/>
	<polygon style="fill:#F1543F;" points="343.2,290.1 343.2,278.7 297.3,278.7 297.3,345.7 310.8,345.7 310.8,317.3 338.8,317.3 
		338.8,305.9 310.8,305.9 310.8,290.1 	"/>
</g>
<g>
</g>
<g>
</g>
<g>
</g>
<g>
</g>
<g>
</g>
<g>
</g>
<g>
</g>
<g>
</g>
<g>
</g>
<g>
</g>
<g>
</g>
<g>
</g>
<g>
</g>
<g>
</g>
<g>
</g>
</svg>
