<!-- Generated by IcoMoon.io -->
<svg version="1.1" xmlns="http://www.w3.org/2000/svg" width="30" height="28" viewBox="0 0 30 28">
<title>gamepad</title>
<path d="M13 17v-2c0-0.281-0.219-0.5-0.5-0.5h-3v-3c0-0.281-0.219-0.5-0.5-0.5h-2c-0.281 0-0.5 0.219-0.5 0.5v3h-3c-0.281 0-0.5 0.219-0.5 0.5v2c0 0.281 0.219 0.5 0.5 0.5h3v3c0 0.281 0.219 0.5 0.5 0.5h2c0.281 0 0.5-0.219 0.5-0.5v-3h3c0.281 0 0.5-0.219 0.5-0.5zM22 18c0-1.109-0.891-2-2-2s-2 0.891-2 2 0.891 2 2 2 2-0.891 2-2zM26 14c0-1.109-0.891-2-2-2s-2 0.891-2 2 0.891 2 2 2 2-0.891 2-2zM30 16c0 4.422-3.578 8-8 8-2.031 0-3.875-0.766-5.281-2h-3.437c-1.406 1.234-3.25 2-5.281 2-4.422 0-8-3.578-8-8s3.578-8 8-8h14c4.422 0 8 3.578 8 8z"></path>
</svg>
