<?xml version="1.0" encoding="iso-8859-1"?>
<!-- Generator: Adobe Illustrator 19.0.0, SVG Export Plug-In . SVG Version: 6.00 Build 0)  -->
<svg version="1.1" id="Capa_1" xmlns="http://www.w3.org/2000/svg" xmlns:xlink="http://www.w3.org/1999/xlink" x="0px" y="0px"
	 viewBox="0 0 512.001 512.001" style="enable-background:new 0 0 512.001 512.001;" xml:space="preserve">
<path style="fill:#D32144;" d="M459.845,299.477l25.34,25.426c9.98,9.936,10.249,26.008,0.607,36.274L364.301,490.305H17.356
	C7.784,490.279,0.026,482.521,0,472.949V221.288c0.026-9.572,7.784-17.33,17.356-17.356h346.945L459.845,299.477z M434.94,324.383
	c-10.171-10.162-26.659-10.153-36.821,0.026c-10.162,10.171-10.153,26.659,0.026,36.821c10.171,10.162,26.659,10.153,36.821-0.026
	c4.877-4.886,7.619-11.516,7.611-18.423C442.576,335.872,439.825,329.26,434.94,324.383z M346.251,392.852v-14.145h-40.786v-31.848
	h38.27v-13.885h-38.27v-27.683h40.786v-14.058h-57.448v101.619L346.251,392.852L346.251,392.852z M271.36,392.852V378.62h-43.043
	v-87.387h-16.575v101.619H271.36z M198.292,392.852l-38.009-101.966h-18.05l-38.009,101.966h17.529l9.98-28.203h38.791
	l10.153,28.203H198.292z M97.974,365.256c0.113-4.122-0.72-8.218-2.43-11.976c-1.779-3.61-4.391-6.734-7.637-9.112
	c-5.094-3.549-10.596-6.465-16.401-8.678c-4.747-1.805-9.337-4.009-13.711-6.595c-2.222-1.302-4.096-3.115-5.467-5.294
	c-1.18-2.057-1.779-4.4-1.736-6.769c-0.121-3.575,1.423-6.994,4.165-9.285c3.541-2.56,7.88-3.792,12.236-3.471
	c8.357,0.295,16.584,2.213,24.212,5.641l5.294-13.538c-9.138-4.131-19.039-6.283-29.071-6.335
	c-8.669-0.46-17.234,2.117-24.212,7.289c-6.04,4.816-9.398,12.245-9.025,19.959c-0.156,6.257,1.831,12.383,5.641,17.356
	c5.337,5.884,12.088,10.309,19.612,12.843c6.37,2.196,12.375,5.363,17.79,9.372c2.786,2.465,4.365,6.005,4.339,9.719
	c0.13,3.914-1.614,7.645-4.686,10.066c-4.304,2.838-9.442,4.148-14.579,3.732c-4.92-0.035-9.815-0.677-14.579-1.909
	c-5.085-1.18-10.032-2.898-14.753-5.12v15.707c8.878,3.888,18.519,5.727,28.203,5.38c9.633,0.529,19.17-2.187,27.075-7.723
	C94.737,381.414,98.356,373.5,97.974,365.256z"/>
<g>
	<polygon style="fill:#EBEBEB;" points="346.251,378.707 346.251,392.852 288.803,392.852 288.803,291.233 346.251,291.233 
		346.251,305.291 305.464,305.291 305.464,332.974 343.734,332.974 343.734,346.859 305.464,346.859 305.464,378.707 	"/>
	<polygon style="fill:#EBEBEB;" points="271.36,378.62 271.36,392.852 211.742,392.852 211.742,291.233 228.317,291.233 
		228.317,378.62 	"/>
	<path style="fill:#EBEBEB;" d="M160.282,290.886l38.009,101.966h-17.616l-10.153-28.203h-38.791l-9.98,28.203h-17.529
		l38.009-101.966H160.282z M166.183,350.33l-9.546-27.683c-0.694-1.822-1.649-4.773-2.864-8.765
		c-1.215-3.992-2.083-6.856-2.517-8.765c-1.475,6.352-3.324,12.618-5.554,18.744l-9.112,26.468L166.183,350.33z"/>
</g>
<path style="fill:#D32144;" d="M156.637,322.647l9.546,27.683h-29.592l9.112-26.468c2.23-6.127,4.079-12.392,5.554-18.744
	c0.434,1.909,1.302,4.773,2.517,8.765C154.988,317.874,155.943,320.825,156.637,322.647z"/>
<path style="fill:#EBEBEB;" d="M95.544,353.28c1.71,3.758,2.543,7.854,2.43,11.976c0.382,8.244-3.237,16.158-9.719,21.261
	c-7.906,5.537-17.443,8.253-27.075,7.723c-9.685,0.347-19.326-1.493-28.203-5.38v-15.707c4.721,2.222,9.667,3.94,14.753,5.12
	c4.764,1.232,9.659,1.874,14.579,1.909c5.137,0.417,10.275-0.894,14.579-3.732c3.072-2.421,4.816-6.153,4.686-10.066
	c0.026-3.714-1.553-7.255-4.339-9.719c-5.415-4.009-11.42-7.177-17.79-9.372c-7.524-2.534-14.275-6.96-19.612-12.843
	c-3.81-4.972-5.797-11.099-5.641-17.356c-0.373-7.715,2.985-15.143,9.025-19.959c6.977-5.172,15.542-7.749,24.212-7.289
	c10.032,0.052,19.933,2.204,29.071,6.335l-5.294,13.538c-7.628-3.428-15.855-5.346-24.212-5.641
	c-4.356-0.321-8.695,0.911-12.236,3.471c-2.742,2.291-4.287,5.71-4.165,9.285c-0.043,2.369,0.555,4.712,1.736,6.769
	c1.371,2.178,3.246,3.992,5.467,5.294c4.374,2.586,8.964,4.79,13.711,6.595c5.806,2.213,11.307,5.129,16.401,8.678
	C91.153,346.546,93.765,349.67,95.544,353.28z"/>
<path style="fill:#454545;" d="M422.678,348.915l-12.271-12.271l56.32-56.32c17.937-17.859,27.995-42.14,27.917-67.454v-8.938
	c-0.026-28.741-23.326-52.042-52.068-52.068h-65.085c-35.944,0-65.085-29.141-65.085-65.085s29.141-65.085,65.085-65.085h91.119
	v17.356h-91.119c-26.364,0-47.729,21.365-47.729,47.729s21.365,47.729,47.729,47.729h65.085
	c38.322,0.043,69.38,31.102,69.424,69.424v8.938c0.095,29.913-11.776,58.62-32.976,79.725L422.678,348.915z"/>
<g>
	<rect x="34.712" y="238.644" style="fill:#EBEBEB;" width="312.407" height="17.356"/>
	<rect x="34.712" y="438.238" style="fill:#EBEBEB;" width="312.407" height="17.356"/>
</g>
<g>
</g>
<g>
</g>
<g>
</g>
<g>
</g>
<g>
</g>
<g>
</g>
<g>
</g>
<g>
</g>
<g>
</g>
<g>
</g>
<g>
</g>
<g>
</g>
<g>
</g>
<g>
</g>
<g>
</g>
</svg>
