<!-- Generated by IcoMoon.io -->
<svg version="1.1" xmlns="http://www.w3.org/2000/svg" width="32" height="28" viewBox="0 0 32 28">
<title>wifi</title>
<path d="M16 23.797c-0.406 0-2.594-2.188-2.594-2.609 0-0.766 2-1.188 2.594-1.188s2.594 0.422 2.594 1.188c0 0.422-2.188 2.609-2.594 2.609zM20.219 19.563c-0.219 0-1.922-1.563-4.219-1.563-2.312 0-3.984 1.563-4.219 1.563-0.375 0-2.641-2.25-2.641-2.625 0-0.141 0.063-0.266 0.156-0.359 1.672-1.656 4.391-2.578 6.703-2.578s5.031 0.922 6.703 2.578c0.094 0.094 0.156 0.219 0.156 0.359 0 0.375-2.266 2.625-2.641 2.625zM24.484 15.313c-0.125 0-0.266-0.063-0.359-0.125-2.578-2-4.75-3.187-8.125-3.187-4.719 0-8.313 3.313-8.484 3.313-0.359 0-2.609-2.25-2.609-2.625 0-0.125 0.063-0.25 0.156-0.344 2.797-2.797 7.016-4.344 10.938-4.344s8.141 1.547 10.938 4.344c0.094 0.094 0.156 0.219 0.156 0.344 0 0.375-2.25 2.625-2.609 2.625zM28.719 11.078c-0.125 0-0.25-0.063-0.344-0.141-3.609-3.172-7.5-4.937-12.375-4.937s-8.766 1.766-12.375 4.937c-0.094 0.078-0.219 0.141-0.344 0.141-0.359 0-2.625-2.25-2.625-2.625 0-0.141 0.063-0.266 0.156-0.359 3.953-3.922 9.656-6.094 15.188-6.094s11.234 2.172 15.188 6.094c0.094 0.094 0.156 0.219 0.156 0.359 0 0.375-2.266 2.625-2.625 2.625z"></path>
</svg>
